<svg xmlns="http://www.w3.org/2000/svg" viewBox="0 0 1200 1300" style="background:#fafafa">
  <style>
    .hip { stroke: #c62828; stroke-width: 2; fill: none; }
    .ridge { stroke: #8e24aa; stroke-width: 2; fill: none; }
    .valley { stroke: #1565c0; stroke-width: 2.5; stroke-dasharray: 10,5; fill: none; }
    .gutter { stroke: #333; stroke-width: 3; fill: none; }
    .label { font-family: -apple-system, sans-serif; font-size: 16px; font-weight: 600; fill: #111; }
    .label-sm { font-family: -apple-system, sans-serif; font-size: 12px; fill: #333; }
  </style>

  <!-- Sheets -->
  <rect x="256" y="510" width="32" height="80" fill="#f97316" stroke="#f97316" stroke-opacity="0.6" stroke-width="0.5" fill-opacity="0.35" /><rect x="294" y="472" width="32" height="156" fill="#f97316" stroke="#f97316" stroke-opacity="0.6" stroke-width="0.5" fill-opacity="0.35" /><rect x="332" y="434" width="32" height="232" fill="#f97316" stroke="#f97316" stroke-opacity="0.6" stroke-width="0.5" fill-opacity="0.35" /><rect x="370" y="400" width="32" height="304" fill="#f97316" stroke="#f97316" stroke-opacity="0.6" stroke-width="0.5" fill-opacity="0.35" /><rect x="408" y="400" width="32" height="342" fill="#f97316" stroke="#f97316" stroke-opacity="0.6" stroke-width="0.5" fill-opacity="0.35" /><rect x="446" y="400" width="32" height="350" fill="#f97316" stroke="#f97316" stroke-opacity="0.6" stroke-width="0.5" fill-opacity="0.35" /><rect x="484" y="400" width="32" height="350" fill="#f97316" stroke="#f97316" stroke-opacity="0.6" stroke-width="0.5" fill-opacity="0.35" /><rect x="522" y="400" width="32" height="350" fill="#f97316" stroke="#f97316" stroke-opacity="0.6" stroke-width="0.5" fill-opacity="0.35" /><rect x="560" y="400" width="32" height="350" fill="#f97316" stroke="#f97316" stroke-opacity="0.6" stroke-width="0.5" fill-opacity="0.35" /><rect x="598" y="400" width="32" height="350" fill="#f97316" stroke="#f97316" stroke-opacity="0.6" stroke-width="0.5" fill-opacity="0.35" /><rect x="636" y="400" width="32" height="330" fill="#f97316" stroke="#f97316" stroke-opacity="0.6" stroke-width="0.5" fill-opacity="0.35" /><rect x="674" y="400" width="32" height="292" fill="#f97316" stroke="#f97316" stroke-opacity="0.6" stroke-width="0.5" fill-opacity="0.35" /><rect x="712" y="400" width="32" height="254" fill="#f97316" stroke="#f97316" stroke-opacity="0.6" stroke-width="0.5" fill-opacity="0.35" /><rect x="750" y="400" width="32" height="216" fill="#f97316" stroke="#f97316" stroke-opacity="0.6" stroke-width="0.5" fill-opacity="0.35" /><rect x="788" y="400" width="32" height="178" fill="#f97316" stroke="#f97316" stroke-opacity="0.6" stroke-width="0.5" fill-opacity="0.35" /><rect x="826" y="400" width="32" height="140" fill="#f97316" stroke="#f97316" stroke-opacity="0.6" stroke-width="0.5" fill-opacity="0.35" /><rect x="864" y="400" width="32" height="102" fill="#f97316" stroke="#f97316" stroke-opacity="0.6" stroke-width="0.5" fill-opacity="0.35" /><rect x="902" y="400" width="32" height="64" fill="#f97316" stroke="#f97316" stroke-opacity="0.6" stroke-width="0.5" fill-opacity="0.35" /><rect x="940" y="400" width="32" height="26" fill="#f97316" stroke="#f97316" stroke-opacity="0.6" stroke-width="0.5" fill-opacity="0.35" />
  <rect x="106" y="1060" width="32" height="40" fill="#2563eb" stroke="#2563eb" stroke-opacity="0.6" stroke-width="0.5" fill-opacity="0.35" /><rect x="144" y="1022" width="32" height="78" fill="#2563eb" stroke="#2563eb" stroke-opacity="0.6" stroke-width="0.5" fill-opacity="0.35" /><rect x="182" y="984" width="32" height="116" fill="#2563eb" stroke="#2563eb" stroke-opacity="0.6" stroke-width="0.5" fill-opacity="0.35" /><rect x="220" y="946" width="32" height="154" fill="#2563eb" stroke="#2563eb" stroke-opacity="0.6" stroke-width="0.5" fill-opacity="0.35" /><rect x="258" y="908" width="32" height="192" fill="#2563eb" stroke="#2563eb" stroke-opacity="0.6" stroke-width="0.5" fill-opacity="0.35" /><rect x="296" y="870" width="32" height="230" fill="#2563eb" stroke="#2563eb" stroke-opacity="0.6" stroke-width="0.5" fill-opacity="0.35" /><rect x="334" y="832" width="32" height="268" fill="#2563eb" stroke="#2563eb" stroke-opacity="0.6" stroke-width="0.5" fill-opacity="0.35" /><rect x="372" y="794" width="32" height="306" fill="#2563eb" stroke="#2563eb" stroke-opacity="0.6" stroke-width="0.5" fill-opacity="0.35" /><rect x="410" y="756" width="32" height="344" fill="#2563eb" stroke="#2563eb" stroke-opacity="0.6" stroke-width="0.5" fill-opacity="0.35" /><rect x="448" y="750" width="32" height="350" fill="#2563eb" stroke="#2563eb" stroke-opacity="0.6" stroke-width="0.5" fill-opacity="0.35" /><rect x="486" y="750" width="32" height="350" fill="#2563eb" stroke="#2563eb" stroke-opacity="0.6" stroke-width="0.5" fill-opacity="0.35" /><rect x="524" y="750" width="32" height="350" fill="#2563eb" stroke="#2563eb" stroke-opacity="0.6" stroke-width="0.5" fill-opacity="0.35" /><rect x="562" y="750" width="32" height="350" fill="#2563eb" stroke="#2563eb" stroke-opacity="0.6" stroke-width="0.5" fill-opacity="0.35" /><rect x="600" y="750" width="32" height="350" fill="#2563eb" stroke="#2563eb" stroke-opacity="0.6" stroke-width="0.5" fill-opacity="0.35" /><rect x="638" y="772" width="32" height="328" fill="#2563eb" stroke="#2563eb" stroke-opacity="0.6" stroke-width="0.5" fill-opacity="0.35" /><rect x="676" y="810" width="32" height="290" fill="#2563eb" stroke="#2563eb" stroke-opacity="0.6" stroke-width="0.5" fill-opacity="0.35" /><rect x="714" y="848" width="32" height="252" fill="#2563eb" stroke="#2563eb" stroke-opacity="0.6" stroke-width="0.5" fill-opacity="0.35" /><rect x="752" y="886" width="32" height="214" fill="#2563eb" stroke="#2563eb" stroke-opacity="0.6" stroke-width="0.5" fill-opacity="0.35" /><rect x="790" y="924" width="32" height="176" fill="#2563eb" stroke="#2563eb" stroke-opacity="0.6" stroke-width="0.5" fill-opacity="0.35" /><rect x="828" y="962" width="32" height="138" fill="#2563eb" stroke="#2563eb" stroke-opacity="0.6" stroke-width="0.5" fill-opacity="0.35" /><rect x="866" y="1000" width="32" height="100" fill="#2563eb" stroke="#2563eb" stroke-opacity="0.6" stroke-width="0.5" fill-opacity="0.35" /><rect x="904" y="1038" width="32" height="62" fill="#2563eb" stroke="#2563eb" stroke-opacity="0.6" stroke-width="0.5" fill-opacity="0.35" /><rect x="942" y="1076" width="32" height="24" fill="#2563eb" stroke="#2563eb" stroke-opacity="0.6" stroke-width="0.5" fill-opacity="0.35" />
  <rect x="100" y="406" width="40" height="32" fill="#16a34a" stroke="#16a34a" stroke-opacity="0.6" stroke-width="0.5" fill-opacity="0.35" /><rect x="100" y="444" width="78" height="32" fill="#16a34a" stroke="#16a34a" stroke-opacity="0.6" stroke-width="0.5" fill-opacity="0.35" /><rect x="100" y="482" width="116" height="32" fill="#16a34a" stroke="#16a34a" stroke-opacity="0.6" stroke-width="0.5" fill-opacity="0.35" /><rect x="100" y="520" width="154" height="32" fill="#16a34a" stroke="#16a34a" stroke-opacity="0.6" stroke-width="0.5" fill-opacity="0.35" /><rect x="100" y="558" width="192" height="32" fill="#16a34a" stroke="#16a34a" stroke-opacity="0.6" stroke-width="0.5" fill-opacity="0.35" /><rect x="100" y="596" width="230" height="32" fill="#16a34a" stroke="#16a34a" stroke-opacity="0.6" stroke-width="0.5" fill-opacity="0.35" /><rect x="100" y="634" width="268" height="32" fill="#16a34a" stroke="#16a34a" stroke-opacity="0.6" stroke-width="0.5" fill-opacity="0.35" /><rect x="100" y="672" width="306" height="32" fill="#16a34a" stroke="#16a34a" stroke-opacity="0.6" stroke-width="0.5" fill-opacity="0.35" /><rect x="100" y="710" width="344" height="32" fill="#16a34a" stroke="#16a34a" stroke-opacity="0.6" stroke-width="0.5" fill-opacity="0.35" /><rect x="100" y="748" width="318" height="32" fill="#16a34a" stroke="#16a34a" stroke-opacity="0.6" stroke-width="0.5" fill-opacity="0.35" /><rect x="100" y="786" width="280" height="32" fill="#16a34a" stroke="#16a34a" stroke-opacity="0.6" stroke-width="0.5" fill-opacity="0.35" /><rect x="100" y="824" width="242" height="32" fill="#16a34a" stroke="#16a34a" stroke-opacity="0.6" stroke-width="0.5" fill-opacity="0.35" /><rect x="100" y="862" width="204" height="32" fill="#16a34a" stroke="#16a34a" stroke-opacity="0.6" stroke-width="0.5" fill-opacity="0.35" /><rect x="100" y="900" width="166" height="32" fill="#16a34a" stroke="#16a34a" stroke-opacity="0.6" stroke-width="0.5" fill-opacity="0.35" /><rect x="100" y="938" width="128" height="32" fill="#16a34a" stroke="#16a34a" stroke-opacity="0.6" stroke-width="0.5" fill-opacity="0.35" /><rect x="100" y="976" width="90" height="32" fill="#16a34a" stroke="#16a34a" stroke-opacity="0.6" stroke-width="0.5" fill-opacity="0.35" /><rect x="100" y="1014" width="52" height="32" fill="#16a34a" stroke="#16a34a" stroke-opacity="0.6" stroke-width="0.5" fill-opacity="0.35" /><rect x="100" y="1052" width="14" height="32" fill="#16a34a" stroke="#16a34a" stroke-opacity="0.6" stroke-width="0.5" fill-opacity="0.35" />
  <rect x="960" y="406" width="40" height="32" fill="#16a34a" stroke="#16a34a" stroke-opacity="0.6" stroke-width="0.5" fill-opacity="0.35" /><rect x="922" y="444" width="78" height="32" fill="#16a34a" stroke="#16a34a" stroke-opacity="0.6" stroke-width="0.5" fill-opacity="0.35" /><rect x="884" y="482" width="116" height="32" fill="#16a34a" stroke="#16a34a" stroke-opacity="0.6" stroke-width="0.5" fill-opacity="0.35" /><rect x="846" y="520" width="154" height="32" fill="#16a34a" stroke="#16a34a" stroke-opacity="0.6" stroke-width="0.5" fill-opacity="0.35" /><rect x="808" y="558" width="192" height="32" fill="#16a34a" stroke="#16a34a" stroke-opacity="0.6" stroke-width="0.5" fill-opacity="0.35" /><rect x="770" y="596" width="230" height="32" fill="#16a34a" stroke="#16a34a" stroke-opacity="0.6" stroke-width="0.5" fill-opacity="0.35" /><rect x="732" y="634" width="268" height="32" fill="#16a34a" stroke="#16a34a" stroke-opacity="0.6" stroke-width="0.5" fill-opacity="0.35" /><rect x="694" y="672" width="306" height="32" fill="#16a34a" stroke="#16a34a" stroke-opacity="0.6" stroke-width="0.5" fill-opacity="0.35" /><rect x="656" y="710" width="344" height="32" fill="#16a34a" stroke="#16a34a" stroke-opacity="0.6" stroke-width="0.5" fill-opacity="0.35" /><rect x="682" y="748" width="318" height="32" fill="#16a34a" stroke="#16a34a" stroke-opacity="0.6" stroke-width="0.5" fill-opacity="0.35" /><rect x="720" y="786" width="280" height="32" fill="#16a34a" stroke="#16a34a" stroke-opacity="0.6" stroke-width="0.5" fill-opacity="0.35" /><rect x="758" y="824" width="242" height="32" fill="#16a34a" stroke="#16a34a" stroke-opacity="0.6" stroke-width="0.5" fill-opacity="0.35" /><rect x="796" y="862" width="204" height="32" fill="#16a34a" stroke="#16a34a" stroke-opacity="0.6" stroke-width="0.5" fill-opacity="0.35" /><rect x="834" y="900" width="166" height="32" fill="#16a34a" stroke="#16a34a" stroke-opacity="0.6" stroke-width="0.5" fill-opacity="0.35" /><rect x="872" y="938" width="128" height="32" fill="#16a34a" stroke="#16a34a" stroke-opacity="0.6" stroke-width="0.5" fill-opacity="0.35" /><rect x="910" y="976" width="90" height="32" fill="#16a34a" stroke="#16a34a" stroke-opacity="0.6" stroke-width="0.5" fill-opacity="0.35" /><rect x="948" y="1014" width="52" height="32" fill="#16a34a" stroke="#16a34a" stroke-opacity="0.6" stroke-width="0.5" fill-opacity="0.35" /><rect x="986" y="1052" width="14" height="32" fill="#16a34a" stroke="#16a34a" stroke-opacity="0.6" stroke-width="0.5" fill-opacity="0.35" />
  <rect x="100" y="68" width="300" height="32" fill="#a855f7" stroke="#a855f7" stroke-opacity="0.6" stroke-width="0.5" fill-opacity="0.35" /><rect x="100" y="106" width="300" height="32" fill="#a855f7" stroke="#a855f7" stroke-opacity="0.6" stroke-width="0.5" fill-opacity="0.35" /><rect x="100" y="144" width="300" height="32" fill="#a855f7" stroke="#a855f7" stroke-opacity="0.6" stroke-width="0.5" fill-opacity="0.35" /><rect x="100" y="182" width="300" height="32" fill="#a855f7" stroke="#a855f7" stroke-opacity="0.6" stroke-width="0.5" fill-opacity="0.35" /><rect x="100" y="220" width="300" height="32" fill="#a855f7" stroke="#a855f7" stroke-opacity="0.6" stroke-width="0.5" fill-opacity="0.35" /><rect x="100" y="258" width="300" height="32" fill="#a855f7" stroke="#a855f7" stroke-opacity="0.6" stroke-width="0.5" fill-opacity="0.35" /><rect x="100" y="296" width="300" height="32" fill="#a855f7" stroke="#a855f7" stroke-opacity="0.6" stroke-width="0.5" fill-opacity="0.35" /><rect x="100" y="334" width="300" height="32" fill="#a855f7" stroke="#a855f7" stroke-opacity="0.6" stroke-width="0.5" fill-opacity="0.35" /><rect x="106" y="372" width="288" height="32" fill="#a855f7" stroke="#a855f7" stroke-opacity="0.6" stroke-width="0.5" fill-opacity="0.35" /><rect x="144" y="410" width="212" height="32" fill="#a855f7" stroke="#a855f7" stroke-opacity="0.6" stroke-width="0.5" fill-opacity="0.35" /><rect x="182" y="448" width="136" height="32" fill="#a855f7" stroke="#a855f7" stroke-opacity="0.6" stroke-width="0.5" fill-opacity="0.35" /><rect x="220" y="486" width="60" height="32" fill="#a855f7" stroke="#a855f7" stroke-opacity="0.6" stroke-width="0.5" fill-opacity="0.35" />

  <!-- Hip / ridge / valley overlays -->
  <line x1="100" y1="400" x2="450" y2="750" class="hip" />
  <line x1="1000" y1="400" x2="650" y2="750" class="hip" />
  <line x1="100" y1="1100" x2="450" y2="750" class="hip" />
  <line x1="1000" y1="1100" x2="650" y2="750" class="hip" />
  <line x1="450" y1="750" x2="650" y2="750" class="ridge" />
  <line x1="400" y1="400" x2="250" y2="550" class="valley" />

  <!-- L-shape outline (gutters in black) -->
  <path d="M 100,100 L 400,100 L 400,400 L 1000,400 L 1000,1100 L 100,1100 Z" fill="none" stroke="#000" stroke-width="3" />

  <!-- Labels -->
  <text x="200" y="270" class="label" fill="#a855f7">Wing region (purple)</text>
  <text x="170" y="290" class="label-sm">horizontal strips, perpendicular to W gutter</text>
  <text x="600" y="540" class="label" fill="#f97316">Main N long-side (orange)</text>
  <text x="580" y="558" class="label-sm">vertical strips, perpendicular to N gutter</text>
  <text x="500" y="970" class="label" fill="#2563eb">Main S long-side (blue)</text>
  <text x="500" y="988" class="label-sm">vertical strips, perpendicular to S gutter</text>
  <text x="150" y="800" class="label" fill="#16a34a">W hip-end</text>
  <text x="115" y="820" class="label-sm">horizontal strips</text>
  <text x="830" y="800" class="label" fill="#16a34a">E hip-end</text>
  <text x="830" y="820" class="label-sm">horizontal strips</text>

  <text x="310" y="455" class="label-sm" fill="#1565c0">VALLEY 45° SW</text>
  <text x="270" y="475" class="label-sm" fill="#1565c0">(400,400) → (250,550)</text>
</svg>