<svg xmlns="http://www.w3.org/2000/svg" viewBox="0 0 1300 1300" style="background:#fff">
  <defs>
    <marker id="arr-o" viewBox="0 0 10 10" refX="9" refY="5" markerWidth="8" markerHeight="8" orient="auto">
      <path d="M 0 0 L 10 5 L 0 10 z" fill="#c2410c" />
    </marker>
    <marker id="arr-b" viewBox="0 0 10 10" refX="9" refY="5" markerWidth="8" markerHeight="8" orient="auto">
      <path d="M 0 0 L 10 5 L 0 10 z" fill="#1d4ed8" />
    </marker>
  </defs>
  <style>
    .gutter { stroke: #000; stroke-width: 3; fill: none; }
    .hip { stroke: #c62828; stroke-width: 2; fill: none; }
    .valley { stroke: #1565c0; stroke-width: 2; stroke-dasharray: 10,5; fill: none; }
    .ridge { stroke: #8e24aa; stroke-width: 2; fill: none; }
    .lbl { font-family: -apple-system, sans-serif; font-size: 14px; fill: #111; font-weight: 600; }
    .dim { font-family: -apple-system, sans-serif; font-size: 12px; fill: #444; }
  </style>

  <path d="M 100,100 L 400,100 L 400,400 L 1000,400 L 1000,1100 L 100,1100 Z" class="gutter" />

  <!-- Usual 4-hip fills -->
  <polygon points="480,400 518,400 518,750 480,750" fill="#f97316" fill-opacity="0.45" stroke="#f97316" stroke-width="0.6" /><polygon points="518,400 556,400 556,750 518,750" fill="#f97316" fill-opacity="0.45" stroke="#f97316" stroke-width="0.6" /><polygon points="556,400 594,400 594,750 556,750" fill="#f97316" fill-opacity="0.45" stroke="#f97316" stroke-width="0.6" /><polygon points="594,400 632,400 632,750 594,750" fill="#f97316" fill-opacity="0.45" stroke="#f97316" stroke-width="0.6" /><polygon points="632,400 670,400 670,730 650,750 632,750" fill="#f97316" fill-opacity="0.45" stroke="#f97316" stroke-width="0.6" /><polygon points="670,400 708,400 708,692 670,730" fill="#f97316" fill-opacity="0.45" stroke="#f97316" stroke-width="0.6" /><polygon points="708,400 746,400 746,654 708,692" fill="#f97316" fill-opacity="0.45" stroke="#f97316" stroke-width="0.6" /><polygon points="746,400 784,400 784,616 746,654" fill="#f97316" fill-opacity="0.45" stroke="#f97316" stroke-width="0.6" /><polygon points="784,400 822,400 822,578 784,616" fill="#f97316" fill-opacity="0.45" stroke="#f97316" stroke-width="0.6" /><polygon points="822,400 860,400 860,540 822,578" fill="#f97316" fill-opacity="0.45" stroke="#f97316" stroke-width="0.6" /><polygon points="860,400 898,400 898,502 860,540" fill="#f97316" fill-opacity="0.45" stroke="#f97316" stroke-width="0.6" /><polygon points="898,400 936,400 936,464 898,502" fill="#f97316" fill-opacity="0.45" stroke="#f97316" stroke-width="0.6" /><polygon points="936,400 974,400 974,426 936,464" fill="#f97316" fill-opacity="0.45" stroke="#f97316" stroke-width="0.6" /><polygon points="974,400 1000,400 1000,400 974,426" fill="#f97316" fill-opacity="0.45" stroke="#f97316" stroke-width="0.6" />
  <polygon points="100,1100 138,1062 138,1100 100,1100" fill="#2563eb" fill-opacity="0.45" stroke="#2563eb" stroke-width="0.6" /><polygon points="138,1062 176,1024 176,1100 138,1100" fill="#2563eb" fill-opacity="0.45" stroke="#2563eb" stroke-width="0.6" /><polygon points="176,1024 214,986 214,1100 176,1100" fill="#2563eb" fill-opacity="0.45" stroke="#2563eb" stroke-width="0.6" /><polygon points="214,986 252,948 252,1100 214,1100" fill="#2563eb" fill-opacity="0.45" stroke="#2563eb" stroke-width="0.6" /><polygon points="252,948 290,910 290,1100 252,1100" fill="#2563eb" fill-opacity="0.45" stroke="#2563eb" stroke-width="0.6" /><polygon points="290,910 328,872 328,1100 290,1100" fill="#2563eb" fill-opacity="0.45" stroke="#2563eb" stroke-width="0.6" /><polygon points="328,872 366,834 366,1100 328,1100" fill="#2563eb" fill-opacity="0.45" stroke="#2563eb" stroke-width="0.6" /><polygon points="366,834 404,796 404,1100 366,1100" fill="#2563eb" fill-opacity="0.45" stroke="#2563eb" stroke-width="0.6" /><polygon points="404,796 442,758 442,1100 404,1100" fill="#2563eb" fill-opacity="0.45" stroke="#2563eb" stroke-width="0.6" /><polygon points="442,758 450,750 480,750 480,1100 442,1100" fill="#2563eb" fill-opacity="0.45" stroke="#2563eb" stroke-width="0.6" /><polygon points="480,750 518,750 518,1100 480,1100" fill="#2563eb" fill-opacity="0.45" stroke="#2563eb" stroke-width="0.6" /><polygon points="518,750 556,750 556,1100 518,1100" fill="#2563eb" fill-opacity="0.45" stroke="#2563eb" stroke-width="0.6" /><polygon points="556,750 594,750 594,1100 556,1100" fill="#2563eb" fill-opacity="0.45" stroke="#2563eb" stroke-width="0.6" /><polygon points="594,750 632,750 632,1100 594,1100" fill="#2563eb" fill-opacity="0.45" stroke="#2563eb" stroke-width="0.6" /><polygon points="632,750 650,750 670,770 670,1100 632,1100" fill="#2563eb" fill-opacity="0.45" stroke="#2563eb" stroke-width="0.6" /><polygon points="670,770 708,808 708,1100 670,1100" fill="#2563eb" fill-opacity="0.45" stroke="#2563eb" stroke-width="0.6" /><polygon points="708,808 746,846 746,1100 708,1100" fill="#2563eb" fill-opacity="0.45" stroke="#2563eb" stroke-width="0.6" /><polygon points="746,846 784,884 784,1100 746,1100" fill="#2563eb" fill-opacity="0.45" stroke="#2563eb" stroke-width="0.6" /><polygon points="784,884 822,922 822,1100 784,1100" fill="#2563eb" fill-opacity="0.45" stroke="#2563eb" stroke-width="0.6" /><polygon points="822,922 860,960 860,1100 822,1100" fill="#2563eb" fill-opacity="0.45" stroke="#2563eb" stroke-width="0.6" /><polygon points="860,960 898,998 898,1100 860,1100" fill="#2563eb" fill-opacity="0.45" stroke="#2563eb" stroke-width="0.6" /><polygon points="898,998 936,1036 936,1100 898,1100" fill="#2563eb" fill-opacity="0.45" stroke="#2563eb" stroke-width="0.6" /><polygon points="936,1036 974,1074 974,1100 936,1100" fill="#2563eb" fill-opacity="0.45" stroke="#2563eb" stroke-width="0.6" /><polygon points="974,1074 1000,1100 1000,1100 974,1100" fill="#2563eb" fill-opacity="0.45" stroke="#2563eb" stroke-width="0.6" />
  <polygon points="100,400 100,400 138,438 100,438" fill="#f97316" fill-opacity="0.45" stroke="#f97316" stroke-width="0.6" /><polygon points="100,438 138,438 176,476 100,476" fill="#f97316" fill-opacity="0.45" stroke="#f97316" stroke-width="0.6" /><polygon points="100,476 176,476 214,514 100,514" fill="#f97316" fill-opacity="0.45" stroke="#f97316" stroke-width="0.6" /><polygon points="100,514 214,514 252,552 100,552" fill="#f97316" fill-opacity="0.45" stroke="#f97316" stroke-width="0.6" /><polygon points="100,552 252,552 290,590 100,590" fill="#f97316" fill-opacity="0.45" stroke="#f97316" stroke-width="0.6" /><polygon points="100,590 290,590 328,628 100,628" fill="#f97316" fill-opacity="0.45" stroke="#f97316" stroke-width="0.6" /><polygon points="100,628 328,628 366,666 100,666" fill="#f97316" fill-opacity="0.45" stroke="#f97316" stroke-width="0.6" /><polygon points="100,666 366,666 404,704 100,704" fill="#f97316" fill-opacity="0.45" stroke="#f97316" stroke-width="0.6" /><polygon points="100,704 404,704 442,742 100,742" fill="#f97316" fill-opacity="0.45" stroke="#f97316" stroke-width="0.6" /><polygon points="100,742 442,742 450,750 100,750" fill="#f97316" fill-opacity="0.45" stroke="#f97316" stroke-width="0.6" />
  <polygon points="1000,400 1000,400 1000,438 962,438" fill="#f97316" fill-opacity="0.45" stroke="#f97316" stroke-width="0.6" /><polygon points="962,438 1000,438 1000,476 924,476" fill="#f97316" fill-opacity="0.45" stroke="#f97316" stroke-width="0.6" /><polygon points="924,476 1000,476 1000,514 886,514" fill="#f97316" fill-opacity="0.45" stroke="#f97316" stroke-width="0.6" /><polygon points="886,514 1000,514 1000,552 848,552" fill="#f97316" fill-opacity="0.45" stroke="#f97316" stroke-width="0.6" /><polygon points="848,552 1000,552 1000,590 810,590" fill="#f97316" fill-opacity="0.45" stroke="#f97316" stroke-width="0.6" /><polygon points="810,590 1000,590 1000,628 772,628" fill="#f97316" fill-opacity="0.45" stroke="#f97316" stroke-width="0.6" /><polygon points="772,628 1000,628 1000,666 734,666" fill="#f97316" fill-opacity="0.45" stroke="#f97316" stroke-width="0.6" /><polygon points="734,666 1000,666 1000,704 696,704" fill="#f97316" fill-opacity="0.45" stroke="#f97316" stroke-width="0.6" /><polygon points="696,704 1000,704 1000,742 658,742" fill="#f97316" fill-opacity="0.45" stroke="#f97316" stroke-width="0.6" /><polygon points="658,742 1000,742 1000,780 880,780 650,750" fill="#2563eb" fill-opacity="0.45" stroke="#2563eb" stroke-width="0.6" /><polygon points="880,780 1000,780 1000,818 918,818" fill="#2563eb" fill-opacity="0.45" stroke="#2563eb" stroke-width="0.6" /><polygon points="918,818 1000,818 1000,856 956,856" fill="#2563eb" fill-opacity="0.45" stroke="#2563eb" stroke-width="0.6" /><polygon points="956,856 1000,856 1000,894 994,894" fill="#2563eb" fill-opacity="0.45" stroke="#2563eb" stroke-width="0.6" /><polygon points="994,894 1000,894 1000,932 1000,932" fill="#2563eb" fill-opacity="0.45" stroke="#2563eb" stroke-width="0.6" /><polygon points="1000,932 1000,932 1000,970 1000,970" fill="#2563eb" fill-opacity="0.45" stroke="#2563eb" stroke-width="0.6" /><polygon points="1000,970 1000,970 1000,1008 1000,1008" fill="#2563eb" fill-opacity="0.45" stroke="#2563eb" stroke-width="0.6" /><polygon points="1000,1008 1000,1008 1000,1046 1000,1046" fill="#2563eb" fill-opacity="0.45" stroke="#2563eb" stroke-width="0.6" /><polygon points="1000,1046 1000,1046 1000,1084 1000,1084" fill="#2563eb" fill-opacity="0.45" stroke="#2563eb" stroke-width="0.6" /><polygon points="1000,1084 1000,1084 1000,1100 1000,1100" fill="#2563eb" fill-opacity="0.45" stroke="#2563eb" stroke-width="0.6" />

  <!-- Donor pieces -->
  <polygon points="100,100 138,100 138,138 100,100" fill="#ef4444" fill-opacity="0.55" stroke="#ef4444" stroke-width="0.8" /><polygon points="450,750 412,788 100,788 100,750" fill="#ef4444" fill-opacity="0.55" stroke="#ef4444" stroke-width="0.8" /><polygon points="138,100 176,100 176,176 138,138" fill="#f59e0b" fill-opacity="0.55" stroke="#f59e0b" stroke-width="0.8" /><polygon points="412,788 374,826 100,826 100,788" fill="#f59e0b" fill-opacity="0.55" stroke="#f59e0b" stroke-width="0.8" /><polygon points="176,100 214,100 214,214 176,176" fill="#eab308" fill-opacity="0.55" stroke="#eab308" stroke-width="0.8" /><polygon points="374,826 336,864 100,864 100,826" fill="#eab308" fill-opacity="0.55" stroke="#eab308" stroke-width="0.8" /><polygon points="214,100 252,100 252,252 214,214" fill="#84cc16" fill-opacity="0.55" stroke="#84cc16" stroke-width="0.8" /><polygon points="336,864 298,902 100,902 100,864" fill="#84cc16" fill-opacity="0.55" stroke="#84cc16" stroke-width="0.8" /><polygon points="252,100 290,100 290,210 252,248" fill="#10b981" fill-opacity="0.55" stroke="#10b981" stroke-width="0.8" /><polygon points="252,548 290,510 290,590 252,552" fill="#10b981" fill-opacity="0.55" stroke="#10b981" stroke-width="0.8" /><polygon points="298,902 260,940 100,940 100,902" fill="#10b981" fill-opacity="0.55" stroke="#10b981" stroke-width="0.8" /><polygon points="290,100 328,100 328,172 290,210" fill="#06b6d4" fill-opacity="0.55" stroke="#06b6d4" stroke-width="0.8" /><polygon points="290,510 328,472 328,628 290,590" fill="#06b6d4" fill-opacity="0.55" stroke="#06b6d4" stroke-width="0.8" /><polygon points="260,940 222,978 100,978 100,940" fill="#06b6d4" fill-opacity="0.55" stroke="#06b6d4" stroke-width="0.8" /><polygon points="328,100 366,100 366,134 328,172" fill="#3b82f6" fill-opacity="0.55" stroke="#3b82f6" stroke-width="0.8" /><polygon points="328,472 366,434 366,666 328,628" fill="#3b82f6" fill-opacity="0.55" stroke="#3b82f6" stroke-width="0.8" /><polygon points="222,978 184,1016 100,1016 100,978" fill="#3b82f6" fill-opacity="0.55" stroke="#3b82f6" stroke-width="0.8" /><polygon points="366,100 404,100 404,96 366,134" fill="#8b5cf6" fill-opacity="0.55" stroke="#8b5cf6" stroke-width="0.8" /><polygon points="366,434 404,396 404,704 366,666" fill="#8b5cf6" fill-opacity="0.55" stroke="#8b5cf6" stroke-width="0.8" /><polygon points="184,1016 146,1054 100,1054 100,1016" fill="#8b5cf6" fill-opacity="0.55" stroke="#8b5cf6" stroke-width="0.8" /><polygon points="404,400 442,400 442,742 404,704" fill="#ec4899" fill-opacity="0.55" stroke="#ec4899" stroke-width="0.8" /><polygon points="146,1054 108,1092 100,1092 100,1054" fill="#ec4899" fill-opacity="0.55" stroke="#ec4899" stroke-width="0.8" /><polygon points="442,400 480,400 480,750 450,750 442,742" fill="#a3a3a3" fill-opacity="0.55" stroke="#a3a3a3" stroke-width="0.8" /><polygon points="108,1092 100,1100 100,1092" fill="#a3a3a3" fill-opacity="0.55" stroke="#a3a3a3" stroke-width="0.8" />

  <!-- Hip / valley / ridge -->
  <line x1="100" y1="400" x2="450" y2="750" class="hip" />
  <line x1="100" y1="1100" x2="450" y2="750" class="hip" />
  <line x1="1000" y1="400" x2="650" y2="750" class="hip" />
  <line x1="1000" y1="1100" x2="650" y2="750" class="hip" />
  <line x1="450" y1="750" x2="650" y2="750" class="ridge" />
  <line x1="400" y1="400" x2="250" y2="550" class="valley" />
  <line x1="100" y1="100" x2="250" y2="250" class="hip" />
  <line x1="400" y1="100" x2="250" y2="250" class="hip" />

  <!-- Offcut origin arrows for E hip-end -->
  <path d="M 870 500 Q 940 530 920 600" fill="none" stroke="#c2410c" stroke-width="1.5" marker-end="url(#arr-o)" />
  <path d="M 870 1000 Q 940 970 920 900" fill="none" stroke="#1d4ed8" stroke-width="1.5" marker-end="url(#arr-b)" />

  <!-- Labels -->
  <text x="700" y="520" class="lbl" fill="#c2410c">N long-side donors</text>
  <text x="700" y="538" class="dim">offcuts below NE hip → E hip-end upper (orange)</text>

  <text x="500" y="1020" class="lbl" fill="#1d4ed8">S long-side donors</text>
  <text x="500" y="1038" class="dim">offcuts above SE hip → E hip-end lower (blue)</text>

  <text x="900" y="580" class="lbl" fill="#c2410c">E hip-end upper</text>
  <text x="900" y="598" class="dim">N donor offcuts</text>

  <text x="900" y="930" class="lbl" fill="#1d4ed8">E hip-end lower</text>
  <text x="900" y="948" class="dim">S donor offcuts</text>

  <rect x="60" y="1180" width="1180" height="100" fill="#fffbeb" stroke="#ca8a04" stroke-width="1.5" rx="8" />
  <text x="80" y="1210" class="lbl">E hip-end filled with offcuts from N + S long-side donors</text>
  <text x="80" y="1232" class="dim">• upper-half E hip-end (orange) ← offcuts of N long-side donors at x ≥ 650 (south of NE hip)</text>
  <text x="80" y="1250" class="dim">• lower-half E hip-end (blue) ← offcuts of S long-side donors at x ≥ 650 (north of SE hip)</text>
  <text x="80" y="1268" class="dim">Approve to proceed to wing fill?</text>
</svg>