<?xml version="1.0"?><svg xmlns="http://www.w3.org/2000/svg" width="1500" height="1300" viewBox="0 0 1500 1300" style="background:#fff;font-family:Inter,sans-serif">
    <defs>
      <marker id="arrow" viewBox="0 0 10 10" refX="9" refY="5" markerWidth="8" markerHeight="8" orient="auto">
        <path d="M 0 0 L 10 5 L 0 10 z" fill="#111"/>
      </marker>
    </defs>
    <text x="750" y="38" text-anchor="middle" font-size="24" font-weight="700" fill="#0a1628">Perfect-L cascade — sheets placed per the design</text>
    <text x="750" y="62" text-anchor="middle" font-size="13" fill="#475569">Strips re-coloured: orange = orange-fed donor or destination, blue = blue-fed. Geometry from the 6-face cascade.</text>
    <text x="750" y="82" text-anchor="middle" font-size="13" fill="#475569">Each cross-pair arrow shows where the donor sheets' offcuts land.</text>

    <polygon points="291.7,201.7 658.3,201.7 658.3,751.7 1208.3,751.7 1208.3,1118.3 291.7,1118.3" fill="none" stroke="#0a1628" stroke-width="2.5"/>
    <polygon points="1208.3,1118.3 1208.3,1118.3 1173.4,1118.3 1173.4,1083.4" fill="#2563eb" fill-opacity="0.65" stroke="rgba(0,0,0,0.25)" stroke-width="0.6"/><polygon points="1173.4,1083.4 1173.4,1118.3 1138.5,1118.3 1138.5,1048.5" fill="#2563eb" fill-opacity="0.65" stroke="rgba(0,0,0,0.25)" stroke-width="0.6"/><polygon points="1138.5,1048.5 1138.5,1118.3 1103.6,1118.3 1103.6,1013.6" fill="#2563eb" fill-opacity="0.65" stroke="rgba(0,0,0,0.25)" stroke-width="0.6"/><polygon points="1103.6,1013.6 1103.6,1118.3 1068.6,1118.3 1068.6,978.6" fill="#2563eb" fill-opacity="0.65" stroke="rgba(0,0,0,0.25)" stroke-width="0.6"/><polygon points="1068.6,978.6 1068.6,1118.3 1033.7,1118.3 1033.7,943.7" fill="#2563eb" fill-opacity="0.65" stroke="rgba(0,0,0,0.25)" stroke-width="0.6"/><polygon points="1025.0,935.0 1033.7,943.7 1033.7,1118.3 998.8,1118.3 998.8,935.0" fill="#2563eb" fill-opacity="0.65" stroke="rgba(0,0,0,0.25)" stroke-width="0.6"/><polygon points="998.8,935.0 998.8,1118.3 963.9,1118.3 963.9,935.0" fill="#2563eb" fill-opacity="0.65" stroke="rgba(0,0,0,0.25)" stroke-width="0.6"/><polygon points="963.9,935.0 963.9,1118.3 928.9,1118.3 928.9,935.0" fill="#2563eb" fill-opacity="0.65" stroke="rgba(0,0,0,0.25)" stroke-width="0.6"/><polygon points="928.9,935.0 928.9,1118.3 894.0,1118.3 894.0,935.0" fill="#2563eb" fill-opacity="0.65" stroke="rgba(0,0,0,0.25)" stroke-width="0.6"/><polygon points="894.0,935.0 894.0,1118.3 859.1,1118.3 859.1,935.0" fill="#2563eb" fill-opacity="0.65" stroke="rgba(0,0,0,0.25)" stroke-width="0.6"/><polygon points="859.1,935.0 859.1,1118.3 824.2,1118.3 824.2,935.0" fill="#2563eb" fill-opacity="0.65" stroke="rgba(0,0,0,0.25)" stroke-width="0.6"/><polygon points="824.2,935.0 824.2,1118.3 789.2,1118.3 789.2,935.0" fill="#2563eb" fill-opacity="0.65" stroke="rgba(0,0,0,0.25)" stroke-width="0.6"/><polygon points="789.2,935.0 789.2,1118.3 754.3,1118.3 754.3,935.0" fill="#2563eb" fill-opacity="0.65" stroke="rgba(0,0,0,0.25)" stroke-width="0.6"/><polygon points="754.3,935.0 754.3,1118.3 719.4,1118.3 719.4,935.0" fill="#2563eb" fill-opacity="0.65" stroke="rgba(0,0,0,0.25)" stroke-width="0.6"/><polygon points="719.4,935.0 719.4,1118.3 684.5,1118.3 684.5,935.0" fill="#2563eb" fill-opacity="0.65" stroke="rgba(0,0,0,0.25)" stroke-width="0.6"/><polygon points="684.5,935.0 684.5,1118.3 649.5,1118.3 649.5,935.0" fill="#2563eb" fill-opacity="0.65" stroke="rgba(0,0,0,0.25)" stroke-width="0.6"/><polygon points="649.5,935.0 649.5,1118.3 614.6,1118.3 614.6,935.0" fill="#2563eb" fill-opacity="0.65" stroke="rgba(0,0,0,0.25)" stroke-width="0.6"/><polygon points="614.6,935.0 614.6,1118.3 579.7,1118.3 579.7,935.0" fill="#2563eb" fill-opacity="0.65" stroke="rgba(0,0,0,0.25)" stroke-width="0.6"/><polygon points="579.7,935.0 579.7,1118.3 544.8,1118.3 544.8,935.0" fill="#2563eb" fill-opacity="0.65" stroke="rgba(0,0,0,0.25)" stroke-width="0.6"/><polygon points="544.8,935.0 544.8,1118.3 509.8,1118.3 509.8,935.0" fill="#2563eb" fill-opacity="0.65" stroke="rgba(0,0,0,0.25)" stroke-width="0.6"/><polygon points="509.8,935.0 509.8,1118.3 474.9,1118.3 474.9,935.1 475.0,935.0" fill="#2563eb" fill-opacity="0.65" stroke="rgba(0,0,0,0.25)" stroke-width="0.6"/><polygon points="474.9,935.1 474.9,1118.3 440.0,1118.3 440.0,970.0" fill="#2563eb" fill-opacity="0.65" stroke="rgba(0,0,0,0.25)" stroke-width="0.6"/><polygon points="440.0,970.0 440.0,1118.3 405.1,1118.3 405.1,1004.9" fill="#2563eb" fill-opacity="0.65" stroke="rgba(0,0,0,0.25)" stroke-width="0.6"/><polygon points="405.1,1004.9 405.1,1118.3 370.1,1118.3 370.1,1039.9" fill="#2563eb" fill-opacity="0.65" stroke="rgba(0,0,0,0.25)" stroke-width="0.6"/><polygon points="370.1,1039.9 370.1,1118.3 335.2,1118.3 335.2,1074.8" fill="#2563eb" fill-opacity="0.65" stroke="rgba(0,0,0,0.25)" stroke-width="0.6"/><polygon points="335.2,1074.8 335.2,1118.3 300.3,1118.3 300.3,1109.7" fill="#2563eb" fill-opacity="0.65" stroke="rgba(0,0,0,0.25)" stroke-width="0.6"/><polygon points="300.3,1109.7 300.3,1118.3 291.7,1118.3 291.7,1118.3" fill="#2563eb" fill-opacity="0.65" stroke="rgba(0,0,0,0.25)" stroke-width="0.6"/><polygon points="291.7,1118.3 291.7,1118.3 291.7,1083.4 326.6,1083.4" fill="#f97316" fill-opacity="0.65" stroke="rgba(0,0,0,0.25)" stroke-width="0.6"/><polygon points="326.6,1083.4 291.7,1083.4 291.7,1048.5 361.5,1048.5" fill="#f97316" fill-opacity="0.65" stroke="rgba(0,0,0,0.25)" stroke-width="0.6"/><polygon points="361.5,1048.5 291.7,1048.5 291.7,1013.6 396.4,1013.6" fill="#f97316" fill-opacity="0.65" stroke="rgba(0,0,0,0.25)" stroke-width="0.6"/><polygon points="396.4,1013.6 291.7,1013.6 291.7,978.6 431.4,978.6" fill="#f97316" fill-opacity="0.65" stroke="rgba(0,0,0,0.25)" stroke-width="0.6"/><polygon points="431.4,978.6 291.7,978.6 291.7,943.7 466.3,943.7" fill="#f97316" fill-opacity="0.65" stroke="rgba(0,0,0,0.25)" stroke-width="0.6"/><polygon points="475.0,935.0 466.3,943.7 291.7,943.7 291.7,908.8 475.0,908.8" fill="#f97316" fill-opacity="0.65" stroke="rgba(0,0,0,0.25)" stroke-width="0.6"/><polygon points="475.0,908.8 291.7,908.8 291.7,873.9 475.0,873.9" fill="#f97316" fill-opacity="0.65" stroke="rgba(0,0,0,0.25)" stroke-width="0.6"/><polygon points="475.0,873.9 291.7,873.9 291.7,838.9 475.0,838.9" fill="#f97316" fill-opacity="0.65" stroke="rgba(0,0,0,0.25)" stroke-width="0.6"/><polygon points="475.0,838.9 291.7,838.9 291.7,804.0 475.0,804.0" fill="#f97316" fill-opacity="0.65" stroke="rgba(0,0,0,0.25)" stroke-width="0.6"/><polygon points="475.0,804.0 291.7,804.0 291.7,769.1 475.0,769.1" fill="#f97316" fill-opacity="0.65" stroke="rgba(0,0,0,0.25)" stroke-width="0.6"/><polygon points="475.0,769.1 291.7,769.1 291.7,734.2 475.0,734.2" fill="#f97316" fill-opacity="0.65" stroke="rgba(0,0,0,0.25)" stroke-width="0.6"/><polygon points="475.0,734.2 291.7,734.2 291.7,699.2 475.0,699.2" fill="#f97316" fill-opacity="0.65" stroke="rgba(0,0,0,0.25)" stroke-width="0.6"/><polygon points="475.0,699.2 291.7,699.2 291.7,664.3 475.0,664.3" fill="#f97316" fill-opacity="0.65" stroke="rgba(0,0,0,0.25)" stroke-width="0.6"/><polygon points="475.0,664.3 291.7,664.3 291.7,629.4 475.0,629.4" fill="#f97316" fill-opacity="0.65" stroke="rgba(0,0,0,0.25)" stroke-width="0.6"/><polygon points="475.0,629.4 291.7,629.4 291.7,594.5 475.0,594.5" fill="#f97316" fill-opacity="0.65" stroke="rgba(0,0,0,0.25)" stroke-width="0.6"/><polygon points="475.0,594.5 291.7,594.5 291.7,559.5 475.0,559.5" fill="#f97316" fill-opacity="0.65" stroke="rgba(0,0,0,0.25)" stroke-width="0.6"/><polygon points="475.0,559.5 291.7,559.5 291.7,524.6 475.0,524.6" fill="#f97316" fill-opacity="0.65" stroke="rgba(0,0,0,0.25)" stroke-width="0.6"/><polygon points="475.0,524.6 291.7,524.6 291.7,489.7 475.0,489.7" fill="#f97316" fill-opacity="0.65" stroke="rgba(0,0,0,0.25)" stroke-width="0.6"/><polygon points="475.0,489.7 291.7,489.7 291.7,454.8 475.0,454.8" fill="#f97316" fill-opacity="0.65" stroke="rgba(0,0,0,0.25)" stroke-width="0.6"/><polygon points="475.0,454.8 291.7,454.8 291.7,419.8 475.0,419.8" fill="#f97316" fill-opacity="0.65" stroke="rgba(0,0,0,0.25)" stroke-width="0.6"/><polygon points="475.0,419.8 291.7,419.8 291.7,384.9 474.9,384.9 475.0,385.0" fill="#f97316" fill-opacity="0.65" stroke="rgba(0,0,0,0.25)" stroke-width="0.6"/><polygon points="474.9,384.9 291.7,384.9 291.7,350.0 440.0,350.0" fill="#f97316" fill-opacity="0.65" stroke="rgba(0,0,0,0.25)" stroke-width="0.6"/><polygon points="440.0,350.0 291.7,350.0 291.7,315.1 405.1,315.1" fill="#f97316" fill-opacity="0.65" stroke="rgba(0,0,0,0.25)" stroke-width="0.6"/><polygon points="405.1,315.1 291.7,315.1 291.7,280.1 370.1,280.1" fill="#f97316" fill-opacity="0.65" stroke="rgba(0,0,0,0.25)" stroke-width="0.6"/><polygon points="370.1,280.1 291.7,280.1 291.7,245.2 335.2,245.2" fill="#f97316" fill-opacity="0.65" stroke="rgba(0,0,0,0.25)" stroke-width="0.6"/><polygon points="335.2,245.2 291.7,245.2 291.7,210.3 300.3,210.3" fill="#f97316" fill-opacity="0.65" stroke="rgba(0,0,0,0.25)" stroke-width="0.6"/><polygon points="300.3,210.3 291.7,210.3 291.7,201.7 291.7,201.7" fill="#f97316" fill-opacity="0.65" stroke="rgba(0,0,0,0.25)" stroke-width="0.6"/><polygon points="658.3,201.7 658.3,201.7 658.3,236.6 623.4,236.6" fill="#2563eb" fill-opacity="0.65" stroke="rgba(0,0,0,0.25)" stroke-width="0.6"/><polygon points="623.4,236.6 658.3,236.6 658.3,271.5 588.5,271.5" fill="#2563eb" fill-opacity="0.65" stroke="rgba(0,0,0,0.25)" stroke-width="0.6"/><polygon points="588.5,271.5 658.3,271.5 658.3,306.4 553.6,306.4" fill="#2563eb" fill-opacity="0.65" stroke="rgba(0,0,0,0.25)" stroke-width="0.6"/><polygon points="553.6,306.4 658.3,306.4 658.3,341.4 518.6,341.4" fill="#2563eb" fill-opacity="0.65" stroke="rgba(0,0,0,0.25)" stroke-width="0.6"/><polygon points="518.6,341.4 658.3,341.4 658.3,376.3 483.7,376.3" fill="#2563eb" fill-opacity="0.65" stroke="rgba(0,0,0,0.25)" stroke-width="0.6"/><polygon points="475.0,385.0 483.7,376.3 658.3,376.3 658.3,411.2 475.0,411.2" fill="#2563eb" fill-opacity="0.65" stroke="rgba(0,0,0,0.25)" stroke-width="0.6"/><polygon points="475.0,411.2 658.3,411.2 658.3,446.1 475.0,446.1" fill="#2563eb" fill-opacity="0.65" stroke="rgba(0,0,0,0.25)" stroke-width="0.6"/><polygon points="475.0,446.1 658.3,446.1 658.3,481.1 475.0,481.1" fill="#2563eb" fill-opacity="0.65" stroke="rgba(0,0,0,0.25)" stroke-width="0.6"/><polygon points="475.0,481.1 658.3,481.1 658.3,516.0 475.0,516.0" fill="#2563eb" fill-opacity="0.65" stroke="rgba(0,0,0,0.25)" stroke-width="0.6"/><polygon points="475.0,516.0 658.3,516.0 658.3,550.9 475.0,550.9" fill="#2563eb" fill-opacity="0.65" stroke="rgba(0,0,0,0.25)" stroke-width="0.6"/><polygon points="475.0,550.9 658.3,550.9 658.3,585.8 475.0,585.8" fill="#2563eb" fill-opacity="0.65" stroke="rgba(0,0,0,0.25)" stroke-width="0.6"/><polygon points="475.0,585.8 658.3,585.8 658.3,620.8 475.0,620.8" fill="#2563eb" fill-opacity="0.65" stroke="rgba(0,0,0,0.25)" stroke-width="0.6"/><polygon points="475.0,620.8 658.3,620.8 658.3,655.7 475.0,655.7" fill="#2563eb" fill-opacity="0.65" stroke="rgba(0,0,0,0.25)" stroke-width="0.6"/><polygon points="475.0,655.7 658.3,655.7 658.3,690.6 475.0,690.6" fill="#2563eb" fill-opacity="0.65" stroke="rgba(0,0,0,0.25)" stroke-width="0.6"/><polygon points="475.0,690.6 658.3,690.6 658.3,725.5 475.0,725.5" fill="#2563eb" fill-opacity="0.65" stroke="rgba(0,0,0,0.25)" stroke-width="0.6"/><polygon points="475.0,725.5 658.3,725.5 658.3,760.5 475.0,760.5" fill="#2563eb" fill-opacity="0.65" stroke="rgba(0,0,0,0.25)" stroke-width="0.6"/><polygon points="475.0,760.5 658.3,760.5 658.3,795.4 475.0,795.4" fill="#2563eb" fill-opacity="0.65" stroke="rgba(0,0,0,0.25)" stroke-width="0.6"/><polygon points="475.0,795.4 658.3,795.4 658.3,830.3 475.0,830.3" fill="#2563eb" fill-opacity="0.65" stroke="rgba(0,0,0,0.25)" stroke-width="0.6"/><polygon points="737.0,935.0 737.0,751.7 771.9,751.7 771.9,935.0" fill="#f97316" fill-opacity="0.65" stroke="rgba(0,0,0,0.25)" stroke-width="0.6"/><polygon points="771.9,935.0 771.9,751.7 806.8,751.7 806.8,935.0" fill="#f97316" fill-opacity="0.65" stroke="rgba(0,0,0,0.25)" stroke-width="0.6"/><polygon points="806.8,935.0 806.8,751.7 841.8,751.7 841.8,934.9 841.7,935.0" fill="#f97316" fill-opacity="0.65" stroke="rgba(0,0,0,0.25)" stroke-width="0.6"/><polygon points="841.8,934.9 841.8,751.7 876.7,751.7 876.7,900.0" fill="#f97316" fill-opacity="0.65" stroke="rgba(0,0,0,0.25)" stroke-width="0.6"/><polygon points="876.7,900.0 876.7,751.7 911.6,751.7 911.6,865.1" fill="#f97316" fill-opacity="0.65" stroke="rgba(0,0,0,0.25)" stroke-width="0.6"/><polygon points="911.6,865.1 911.6,751.7 946.5,751.7 946.5,830.1" fill="#f97316" fill-opacity="0.65" stroke="rgba(0,0,0,0.25)" stroke-width="0.6"/><polygon points="946.5,830.1 946.5,751.7 981.5,751.7 981.5,795.2" fill="#f97316" fill-opacity="0.65" stroke="rgba(0,0,0,0.25)" stroke-width="0.6"/><polygon points="981.5,795.2 981.5,751.7 1016.4,751.7 1016.4,760.3" fill="#f97316" fill-opacity="0.65" stroke="rgba(0,0,0,0.25)" stroke-width="0.6"/><polygon points="649.7,1109.7 658.3,1109.7 658.3,1118.3 658.3,1118.3" fill="#2563eb" fill-opacity="0.65" stroke="rgba(0,0,0,0.25)" stroke-width="0.6"/><polygon points="658.3,935.0 658.3,751.7 693.3,751.7 693.3,935.0" fill="#f97316" fill-opacity="0.65" stroke="rgba(0,0,0,0.25)" stroke-width="0.6"/><polygon points="693.3,935.0 693.3,751.7 728.2,751.7 728.2,935.0" fill="#f97316" fill-opacity="0.65" stroke="rgba(0,0,0,0.25)" stroke-width="0.6"/><polygon points="937.7,935.0 937.7,751.7 972.7,751.7 972.7,935.0" fill="#f97316" fill-opacity="0.65" stroke="rgba(0,0,0,0.25)" stroke-width="0.6"/><polygon points="972.7,935.0 972.7,751.7 1007.6,751.7 1007.6,935.0" fill="#f97316" fill-opacity="0.65" stroke="rgba(0,0,0,0.25)" stroke-width="0.6"/><polygon points="1007.6,935.0 1007.6,751.7 1042.5,751.7 1042.5,917.5 1025.0,935.0" fill="#f97316" fill-opacity="0.65" stroke="rgba(0,0,0,0.25)" stroke-width="0.6"/><polygon points="1042.5,917.5 1042.5,751.7 1077.4,751.7 1077.4,882.6" fill="#f97316" fill-opacity="0.65" stroke="rgba(0,0,0,0.25)" stroke-width="0.6"/><polygon points="1077.4,882.6 1077.4,751.7 1112.4,751.7 1112.4,847.6" fill="#f97316" fill-opacity="0.65" stroke="rgba(0,0,0,0.25)" stroke-width="0.6"/><polygon points="1112.4,847.6 1112.4,751.7 1147.3,751.7 1147.3,812.7" fill="#f97316" fill-opacity="0.65" stroke="rgba(0,0,0,0.25)" stroke-width="0.6"/><polygon points="1147.3,812.7 1147.3,751.7 1182.2,751.7 1182.2,777.8" fill="#f97316" fill-opacity="0.65" stroke="rgba(0,0,0,0.25)" stroke-width="0.6"/><polygon points="1182.2,777.8 1182.2,751.7 1208.3,751.7 1208.3,751.7" fill="#f97316" fill-opacity="0.65" stroke="rgba(0,0,0,0.25)" stroke-width="0.6"/><polygon points="291.7,201.7 291.7,201.7 326.6,201.7 326.6,236.6" fill="#2563eb" fill-opacity="0.55" stroke="rgba(0,0,0,0.25)" stroke-width="0.6"/><polygon points="326.6,236.6 326.6,201.7 361.5,201.7 361.5,271.5" fill="#2563eb" fill-opacity="0.55" stroke="rgba(0,0,0,0.25)" stroke-width="0.6"/><polygon points="361.5,271.5 361.5,201.7 396.4,201.7 396.4,306.4" fill="#2563eb" fill-opacity="0.55" stroke="rgba(0,0,0,0.25)" stroke-width="0.6"/><polygon points="396.4,306.4 396.4,201.7 431.4,201.7 431.4,341.4" fill="#2563eb" fill-opacity="0.55" stroke="rgba(0,0,0,0.25)" stroke-width="0.6"/><polygon points="431.4,341.4 431.4,201.7 466.3,201.7 466.3,376.3" fill="#2563eb" fill-opacity="0.55" stroke="rgba(0,0,0,0.25)" stroke-width="0.6"/><polygon points="466.3,376.3 466.3,201.7 501.2,201.7 501.2,358.8 475.0,385.0" fill="#f97316" fill-opacity="0.55" stroke="rgba(0,0,0,0.25)" stroke-width="0.6"/><polygon points="501.2,358.8 501.2,201.7 536.1,201.7 536.1,323.9" fill="#f97316" fill-opacity="0.55" stroke="rgba(0,0,0,0.25)" stroke-width="0.6"/><polygon points="536.1,323.9 536.1,201.7 571.1,201.7 571.1,288.9" fill="#f97316" fill-opacity="0.55" stroke="rgba(0,0,0,0.25)" stroke-width="0.6"/><polygon points="571.1,288.9 571.1,201.7 606.0,201.7 606.0,254.0" fill="#f97316" fill-opacity="0.55" stroke="rgba(0,0,0,0.25)" stroke-width="0.6"/><polygon points="606.0,254.0 606.0,201.7 640.9,201.7 640.9,219.1" fill="#f97316" fill-opacity="0.55" stroke="rgba(0,0,0,0.25)" stroke-width="0.6"/><polygon points="640.9,219.1 640.9,201.7 658.3,201.7 658.3,201.7" fill="#f97316" fill-opacity="0.55" stroke="rgba(0,0,0,0.25)" stroke-width="0.6"/><polygon points="1208.3,751.7 1208.3,751.7 1208.3,786.6 1173.4,786.6" fill="#2563eb" fill-opacity="0.55" stroke="rgba(0,0,0,0.25)" stroke-width="0.6"/><polygon points="1173.4,786.6 1208.3,786.6 1208.3,821.5 1138.5,821.5" fill="#2563eb" fill-opacity="0.55" stroke="rgba(0,0,0,0.25)" stroke-width="0.6"/><polygon points="1138.5,821.5 1208.3,821.5 1208.3,856.4 1103.6,856.4" fill="#2563eb" fill-opacity="0.55" stroke="rgba(0,0,0,0.25)" stroke-width="0.6"/><polygon points="1103.6,856.4 1208.3,856.4 1208.3,891.4 1068.6,891.4" fill="#2563eb" fill-opacity="0.55" stroke="rgba(0,0,0,0.25)" stroke-width="0.6"/><polygon points="1068.6,891.4 1208.3,891.4 1208.3,926.3 1033.7,926.3" fill="#2563eb" fill-opacity="0.55" stroke="rgba(0,0,0,0.25)" stroke-width="0.6"/><polygon points="1033.7,926.3 1208.3,926.3 1208.3,961.2 1051.2,961.2 1025.0,935.0" fill="#f97316" fill-opacity="0.55" stroke="rgba(0,0,0,0.25)" stroke-width="0.6"/><polygon points="1051.2,961.2 1208.3,961.2 1208.3,996.1 1086.1,996.1" fill="#f97316" fill-opacity="0.55" stroke="rgba(0,0,0,0.25)" stroke-width="0.6"/><polygon points="1086.1,996.1 1208.3,996.1 1208.3,1031.1 1121.1,1031.1" fill="#f97316" fill-opacity="0.55" stroke="rgba(0,0,0,0.25)" stroke-width="0.6"/><polygon points="1121.1,1031.1 1208.3,1031.1 1208.3,1066.0 1156.0,1066.0" fill="#f97316" fill-opacity="0.55" stroke="rgba(0,0,0,0.25)" stroke-width="0.6"/><polygon points="1156.0,1066.0 1208.3,1066.0 1208.3,1100.9 1190.9,1100.9" fill="#f97316" fill-opacity="0.55" stroke="rgba(0,0,0,0.25)" stroke-width="0.6"/><polygon points="1190.9,1100.9 1208.3,1100.9 1208.3,1118.3 1208.3,1118.3" fill="#f97316" fill-opacity="0.55" stroke="rgba(0,0,0,0.25)" stroke-width="0.6"/>
    <polygon points="658.3,751.7 475.0,751.7 475.0,935.0" fill="#f97316" fill-opacity="1" stroke="rgba(0,0,0,0.4)" stroke-width="1"/><polygon points="658.3,751.7 658.3,935.0 475.0,935.0" fill="#2563eb" fill-opacity="1" stroke="rgba(0,0,0,0.4)" stroke-width="1"/>
    <line x1="291.66666666666663" y1="201.66666666666666" x2="475" y2="385" stroke="#16a34a" stroke-width="2.5" /><line x1="658.3333333333333" y1="201.66666666666666" x2="475" y2="385" stroke="#16a34a" stroke-width="2.5" /><line x1="1208.3333333333333" y1="751.6666666666666" x2="1025" y2="935" stroke="#16a34a" stroke-width="2.5" /><line x1="1208.3333333333333" y1="1118.3333333333333" x2="1025" y2="935" stroke="#16a34a" stroke-width="2.5" /><line x1="291.66666666666663" y1="1118.3333333333333" x2="475" y2="935" stroke="#16a34a" stroke-width="2.5" />
    <line x1="475" y1="385" x2="475" y2="935" stroke="#dc2626" stroke-width="2.5" /><line x1="475" y1="935" x2="1025" y2="935" stroke="#dc2626" stroke-width="2.5" />
    <line x1="658.3333333333333" y1="751.6666666666666" x2="475" y2="935" stroke="#f59e0b" stroke-width="2.5" stroke-dasharray="10,5"/>

    <!-- Cross-pair arrows -->
    <!-- Wing N: W donors -> E half ; E donors -> W half -->
    <line x1="365" y1="357.5" x2="548.3333333333333" y2="293.3333333333333" stroke="#111" stroke-width="2.2" marker-end="url(#arrow)"/>
    <line x1="585" y1="357.5" x2="401.66666666666663" y2="293.3333333333333" stroke="#111" stroke-width="2.2" marker-end="url(#arrow)"/>

    <!-- Main E: N donors -> S half ; S donors -> N half -->
    <line x1="1080" y1="852.5" x2="1153.3333333333333" y2="1026.6666666666665" stroke="#111" stroke-width="2.2" marker-end="url(#arrow)"/>
    <line x1="1080" y1="1026.6666666666665" x2="1153.3333333333333" y2="852.5" stroke="#111" stroke-width="2.2" marker-end="url(#arrow)"/>

    <!-- External corner -> valleys -->
    <!-- main S west (76,78,96,102,108) -> NORTH of valley -->
    <line x1="401.66666666666663" y1="1045" x2="566.6666666666666" y2="843.3333333333333" stroke="#111" stroke-width="2.2" marker-end="url(#arrow)"/>
    <!-- wing W bottom -> SOUTH of valley -->
    <line x1="355.8333333333333" y1="1026.6666666666665" x2="465.8333333333333" y2="870.8333333333333" stroke="#111" stroke-width="2.2" marker-end="url(#arrow)"/>

    <text x="658.3333333333333" y="737.6666666666666" font-size="14" font-weight="700" fill="#dc2626" text-anchor="start">↑ reflex</text>

    <!-- Legend -->
    <g transform="translate(1180, 110)">
      <rect x="0" y="0" width="300" height="190" fill="#f8fafc" stroke="#cbd5e1" rx="8"/>
      <text x="14" y="22" font-size="13" font-weight="700">Legend</text>
      <rect x="14" y="34" width="22" height="14" fill="#f97316" fill-opacity="0.65"/><text x="44" y="46" font-size="12">orange donor face / its offcut dest.</text>
      <rect x="14" y="56" width="22" height="14" fill="#2563eb" fill-opacity="0.65"/><text x="44" y="68" font-size="12">blue donor face / its offcut dest.</text>
      <line x1="14" y1="86" x2="40" y2="86" stroke="#111" stroke-width="2.2" marker-end="url(#arrow)"/><text x="44" y="90" font-size="12">offcut flow direction</text>
      <line x1="14" y1="106" x2="40" y2="106" stroke="#16a34a" stroke-width="2.2"/><text x="44" y="110" font-size="12">hip</text>
      <line x1="14" y1="126" x2="40" y2="126" stroke="#dc2626" stroke-width="2.2"/><text x="44" y="130" font-size="12">ridge</text>
      <line x1="14" y1="146" x2="40" y2="146" stroke="#f59e0b" stroke-width="2.2" stroke-dasharray="10,5"/><text x="44" y="150" font-size="12">valley</text>
      <text x="14" y="178" font-size="11" font-style="italic" fill="#475569">Lighter shading on hip-ends &amp; valley = offcut destination</text>
    </g>
  </svg>